<?xml version="1.0" encoding="UTF-8" standalone="no"?>
<!DOCTYPE svg PUBLIC "-//W3C//DTD SVG 1.1//EN" "http://www.w3.org/Graphics/SVG/1.1/DTD/svg11.dtd">
<svg width="100%" height="100%" viewBox="0 0 1000 1000" version="1.1" xmlns="http://www.w3.org/2000/svg" xmlns:xlink="http://www.w3.org/1999/xlink" xml:space="preserve" xmlns:serif="http://www.serif.com/" style="fill-rule:evenodd;clip-rule:evenodd;stroke-linejoin:round;stroke-miterlimit:2;">
    <g transform="matrix(27.6389,0,0,27.6389,2,16)">
        <path d="M35,21L1,21C0.448,21 0,20.553 0,20C0,19.447 0.448,19 1,19L35,19C35.553,19 36,19.447 36,20C36,20.553 35.553,21 35,21ZM12.823,19L12.754,18.998C12.662,18.991 3.54,18.284 2.02,10.763C1.911,10.221 2.261,9.694 2.802,9.585C3.345,9.472 3.871,9.826 3.98,10.367C5.201,16.411 12.813,16.998 12.89,17.003C13.441,17.041 13.857,17.518 13.82,18.069C13.784,18.596 13.344,19 12.823,19ZM3,31C2.858,31 2.714,30.97 2.577,30.906C2.077,30.672 1.861,30.077 2.095,29.576C5.261,22.806 13.133,21.855 13.467,21.818C14.015,21.762 14.509,22.152 14.57,22.7C14.632,23.248 14.238,23.743 13.69,23.806C13.619,23.814 6.591,24.682 3.907,30.423C3.736,30.787 3.375,31 3,31ZM22.753,19C22.231,19 21.792,18.595 21.757,18.066C21.721,17.515 22.138,17.039 22.688,17.002C22.769,16.997 30.804,16.385 32.02,10.366C32.128,9.825 32.653,9.471 33.199,9.584C33.74,9.693 34.091,10.221 33.981,10.762C32.46,18.287 23.212,18.972 22.819,18.997L22.753,19ZM33.001,31C32.624,31 32.264,30.787 32.094,30.424C29.4,24.661 21.97,23.815 21.896,23.807C21.346,23.749 20.948,23.257 21.006,22.708C21.064,22.158 21.561,21.756 22.105,21.818C22.457,21.855 30.739,22.801 33.907,29.576C34.14,30.077 33.925,30.672 33.425,30.906C33.286,30.97 33.143,31 33.001,31Z" style="fill:rgb(49,55,61);fill-rule:nonzero;"/>
        <path d="M24.989,7.766C24.92,5.14 23.712,3.55 21.894,2.726C21.961,2.5 22,2.257 22,2C22,0.895 21.328,0 20.5,0C19.672,0 19,0.895 19,2C19,2.015 19.003,2.028 19.003,2.043C18.675,2.017 18.342,2 18,2C17.658,2 17.325,2.017 16.997,2.043C16.997,2.028 17,2.015 17,2C17,0.895 16.329,0 15.5,0C14.671,0 14,0.895 14,2C14,2.257 14.04,2.5 14.106,2.726C12.289,3.55 11.081,5.14 11.011,7.766C7.98,9.551 6,12.662 6,17C6,24.159 11.373,33.923 18,33.923C24.628,33.923 30,24.159 30,17C30,12.662 28.02,9.55 24.989,7.766Z" style="fill:rgb(49,55,61);fill-rule:nonzero;"/>
        <path d="M16.001,34.959C9.564,34.364 4.5,28.064 4.5,20.378C4.5,12.693 9.564,9.597 16,9C16.33,8.97 17,8.954 17,11.294L17,33.835C17,35.006 16.331,34.991 16.001,34.959ZM19.999,34.959C26.435,34.364 31.5,28.064 31.5,20.378C31.5,12.693 26.435,9.597 20,9C19.67,8.97 19,8.954 19,11.294L19,33.835C19,35.006 19.67,34.991 19.999,34.959Z" style="fill-rule:nonzero;"/>
        <clipPath id="_clip1">
            <path d="M16.001,34.959C9.564,34.364 4.5,28.064 4.5,20.378C4.5,12.693 9.564,9.597 16,9C16.33,8.97 17,8.954 17,11.294L17,33.835C17,35.006 16.331,34.991 16.001,34.959ZM19.999,34.959C26.435,34.364 31.5,28.064 31.5,20.378C31.5,12.693 26.435,9.597 20,9C19.67,8.97 19,8.954 19,11.294L19,33.835C19,35.006 19.67,34.991 19.999,34.959Z" clip-rule="nonzero"/>
        </clipPath>
        <g clip-path="url(#_clip1)">
            <g id="Background-Circle" serif:id="Background Circle" transform="matrix(0.277749,0.277749,-0.287955,0.287955,18.3155,1.08272)">
                <path d="M35.9,71.5C16.3,71.5 0.4,55.6 0.4,36C0.4,16.4 16.3,0.6 35.9,0.6C55.5,0.6 71.4,16.5 71.4,36.1C71.4,55.7 55.5,71.5 35.9,71.5Z" style="fill:url(#_Linear2);fill-rule:nonzero;"/>
            </g>
        </g>
    </g>
    <g id="Lower-beard" serif:id="Lower beard" transform="matrix(0.902985,0,0,0.902985,48.293,118.173)">
        <path d="M503.642,629.673C527.496,629.947 576.943,631.918 581,640C594.482,666.859 531.448,825.299 503.284,841.639L503.282,843C502.598,843 501.881,842.874 501.133,842.629C500.391,842.874 499.679,843 499,843L498.998,841.659C470.575,825.433 406.168,666.87 419.745,640C423.831,631.913 474.528,629.944 498.642,629.673L498.642,629.638C499.424,629.64 500.255,629.644 501.132,629.65C502.017,629.644 502.855,629.64 503.642,629.638L503.642,629.673Z" style="fill:rgb(49,55,61);"/>
    </g>
    <g id="Upper-beard" serif:id="Upper beard" transform="matrix(0.902985,0,0,0.902985,50.293,137.173)">
        <path d="M498.733,357.203C547.473,355.78 574.716,313.221 627.233,336.042C700.337,367.808 723.258,456.308 806.959,474.341C838.428,481.121 857.323,456.253 877.092,437.581C883.524,431.506 893.049,418.562 896.807,419.813C900.441,421.022 900.267,433.842 898.85,440.69C896.129,453.836 892.451,467.441 884.685,478.393C874.137,493.269 860.132,505.776 845.238,516.299C802.136,546.753 740.569,558.817 688.631,557.703C652.806,556.934 612.989,546.685 579.942,534.342C549.791,523.08 533.28,483.381 498.234,482.887C463.111,483.381 446.563,523.08 416.345,534.342C383.226,546.685 343.32,556.934 307.416,557.703C255.363,558.817 193.659,546.753 150.461,516.299C135.535,505.776 121.498,493.269 110.927,478.393C103.144,467.441 99.458,453.836 96.731,440.69C95.311,433.842 95.136,421.022 98.778,419.813C102.545,418.562 112.091,431.506 118.537,437.581C138.35,456.253 157.286,481.121 188.826,474.341C272.712,456.308 295.684,367.808 368.949,336.042C421.583,313.221 449.854,355.78 498.733,357.203Z" style="fill:rgb(49,55,61);fill-rule:nonzero;"/>
    </g>
    <defs>
        <linearGradient id="_Linear2" x1="0" y1="0" x2="1" y2="0" gradientUnits="userSpaceOnUse" gradientTransform="matrix(71,0,0,70.9,0.4,36.05)"><stop offset="0" style="stop-color:rgb(206,159,252);stop-opacity:1"/><stop offset="1" style="stop-color:rgb(115,103,240);stop-opacity:1"/></linearGradient>
    </defs>
</svg>
